<svg xmlns="http://www.w3.org/2000/svg" viewBox="2.938 0.1647 60 60" fill="#659e5c">
    <path
        d="M 53.46 16.812 C 52.873 19.041 51.689 21.072 50.024 22.697 C 49.035 23.663 47.949 24.437 46.802 25.029 L 45.185 28.533 C 45.506 28.638 45.821 28.755 46.131 28.88 L 50.148 23.997 C 50.84 23.15 52.014 23.102 52.77 23.879 C 53.523 24.656 53.567 25.974 52.874 26.821 L 49.543 30.864 C 50.804 31.876 51.804 33.07 52.515 34.416 C 52.566 34.512 52.617 34.61 52.664 34.708 L 57.059 34.708 C 57.061 34.808 57.062 34.909 57.061 35.009 C 57.062 45.862 48.43 54.982 36.75 57.562 L 36.75 60 L 23.298 60 L 23.298 57.574 C 11.593 55.008 2.938 45.878 2.938 35.009 C 2.938 34.909 2.938 34.808 2.939 34.708 L 5.661 34.708 C 6.44 31.677 7.892 28.915 9.908 26.702 C 12.794 23.533 16.566 21.791 20.527 21.791 C 21.908 21.791 23.265 22.004 24.57 22.413 C 25.343 20.799 26.487 19.441 27.873 18.484 C 27.616 17.913 27.396 17.316 27.215 16.691 C 24.377 6.89 33.499 -2.026 43.636 0.644 C 50.904 2.566 55.298 9.799 53.46 16.812 Z M 43.974 11.701 C 43.906 11.959 43.909 12.231 43.984 12.488 C 44.312 13.62 45.773 14.004 46.616 13.181 C 47.458 12.359 47.05 10.944 45.879 10.636 C 45.04 10.415 44.187 10.893 43.974 11.701 Z M 34.857 9.3 C 34.789 9.559 34.793 9.831 34.868 10.087 C 35.195 11.219 36.657 11.604 37.499 10.78 C 38.341 9.958 37.932 8.544 36.763 8.236 C 35.923 8.014 35.07 8.492 34.857 9.3 Z M 45.791 17.404 C 45.573 16.65 44.598 16.393 44.037 16.942 C 41.229 19.685 36.353 18.401 35.261 14.631 C 35.16 14.28 34.875 14.006 34.511 13.911 C 33.732 13.707 33.03 14.393 33.249 15.147 C 33.455 15.858 33.757 16.505 34.135 17.084 C 34.813 17.204 35.476 17.41 36.12 17.7 C 36.881 18.038 37.327 18.882 37.278 19.754 C 39.922 20.947 43.226 20.635 45.533 18.381 C 45.794 18.127 45.892 17.755 45.791 17.404 Z M 38.19 27.299 C 38.189 26.962 38.166 26.629 38.118 26.301 C 35.058 25.763 32.176 24.232 30.066 21.867 C 29.227 22.379 28.519 23.13 28.015 24.039 C 29.139 24.764 30.192 25.655 31.147 26.702 C 33.164 28.915 34.615 31.677 35.393 34.708 L 47.902 34.708 C 47.735 34.55 47.559 34.397 47.372 34.249 C 45.512 32.758 43.003 31.939 40.308 31.939 C 39.239 31.939 38.181 32.071 37.174 32.334 C 36.172 32.591 35.177 31.891 34.949 30.774 C 34.719 29.65 35.344 28.533 36.339 28.276 C 36.972 28.112 37.617 27.989 38.269 27.906 C 38.217 27.714 38.19 27.511 38.19 27.299 Z M 41.881 26.651 L 41.975 26.449 C 41.94 26.453 41.905 26.456 41.869 26.459 C 41.874 26.523 41.878 26.587 41.881 26.651 Z M 25.333 29.373 C 24.307 29.373 23.478 28.443 23.478 27.293 C 23.478 26.994 23.49 26.698 23.512 26.405 C 22.545 26.107 21.544 25.953 20.527 25.953 C 17.536 25.952 14.686 27.279 12.497 29.678 C 11.202 31.099 10.206 32.817 9.563 34.708 L 31.49 34.708 C 30.847 32.818 29.853 31.099 28.557 29.678 C 28.067 29.14 27.543 28.656 26.991 28.229 C 26.686 28.908 26.06 29.373 25.333 29.373 Z"
        transform="matrix(1, 0, 0, 1, 0, 7.105427357601002e-15)" />
</svg>